<svg width="14" height="14" viewBox="0 0 14 14" fill="none" xmlns="http://www.w3.org/2000/svg">
<path d="M7.00001 0.333344C3.32668 0.333344 0.333344 3.32668 0.333344 7.00001C0.333344 10.6733 3.32668 13.6667 7.00001 13.6667C10.6733 13.6667 13.6667 10.6733 13.6667 7.00001C13.6667 3.32668 10.6733 0.333344 7.00001 0.333344ZM6.50001 4.33334C6.50001 4.06001 6.72668 3.83334 7.00001 3.83334C7.27334 3.83334 7.50001 4.06001 7.50001 4.33334V7.66668C7.50001 7.94001 7.27334 8.16668 7.00001 8.16668C6.72668 8.16668 6.50001 7.94001 6.50001 7.66668V4.33334ZM7.61334 9.92001C7.58001 10.0067 7.53334 10.0733 7.47334 10.14C7.40668 10.2 7.33334 10.2467 7.25334 10.28C7.17334 10.3133 7.08668 10.3333 7.00001 10.3333C6.91334 10.3333 6.82668 10.3133 6.74668 10.28C6.66668 10.2467 6.59334 10.2 6.52668 10.14C6.46668 10.0733 6.42001 10.0067 6.38668 9.92001C6.35334 9.84001 6.33334 9.75334 6.33334 9.66668C6.33334 9.58001 6.35334 9.49334 6.38668 9.41334C6.42001 9.33334 6.46668 9.26001 6.52668 9.19334C6.59334 9.13334 6.66668 9.08668 6.74668 9.05334C6.90668 8.98668 7.09334 8.98668 7.25334 9.05334C7.33334 9.08668 7.40668 9.13334 7.47334 9.19334C7.53334 9.26001 7.58001 9.33334 7.61334 9.41334C7.64668 9.49334 7.66668 9.58001 7.66668 9.66668C7.66668 9.75334 7.64668 9.84001 7.61334 9.92001Z" fill="#00091F" fill-opacity="0.4"/>
</svg>
